<svg id="Layer_1" data-name="Layer 1" xmlns="http://www.w3.org/2000/svg" viewBox="0 0 645.17 122.61"><defs><style>.cls-1{fill:#2f632a;}.cls-2{fill:none;stroke:#545452;stroke-miterlimit:10;stroke-width:1.5px;}</style></defs><title>logo</title><path d="M59.29,2.69c-2.69.58-3.56,1.81-5.72,6.6-4.44,9.87-8.23,17.86-11.5,26-.88,2.16-1.34,3.74-1.87,4.84a2.06,2.06,0,0,1-1,.23,1.87,1.87,0,0,1-1.05-.23C36.93,36.55,33.25,29,30.92,24c-2.63,5.31-5.2,10.68-7.41,16.17a2.05,2.05,0,0,1-1,.23,1.87,1.87,0,0,1-1.05-.23c-.93-2.63-2.39-5.78-4.09-9.34L6.11,6.95C4.88,4.32,4.3,3.39,1.9,2.8L.27,2.39A1.14,1.14,0,0,1,.44.76C2.54.88,5,.93,7.51.93c2.1,0,4.32-.06,7.12-.17a1.25,1.25,0,0,1,.17,1.63l-1.46.35c-.76.17-1.34.41-1.34.93a14,14,0,0,0,1.4,3.91l6.95,15.06c2,4.44,3.5,7.47,4.09,8.41,1.23-2.34,2.51-5.08,3.91-8.11a8.9,8.9,0,0,0,.82-2.22A5.3,5.3,0,0,0,28.64,19L22.51,6C21.4,3.68,20.7,3.09,19.13,2.74l-1.69-.35A1.13,1.13,0,0,1,17.61.76c2.39.12,4.32.17,6.31.17,2.34,0,4.61-.06,6.95-.17A1.18,1.18,0,0,1,31,2.39l-1.58.35c-.64.12-1,.41-1,.82a5.23,5.23,0,0,0,.53,1.93c1.28,2.92,2.63,5.9,4,8.52,1-2,1.93-4.14,2.86-6.3a14.57,14.57,0,0,0,1.28-4c0-.41-.35-.7-1.17-.88l-1.63-.41A1.17,1.17,0,0,1,34.42.76c1.58.12,3.21.17,5.43.17,2,0,3.44-.06,5.31-.17a1.11,1.11,0,0,1,.12,1.69l-1.46.29c-2.16.41-2.74,1.11-4.61,4.55-1.28,2.33-2.74,5.49-4,8.11A8.1,8.1,0,0,0,34.6,17a6,6,0,0,0,.47,1.4l2.51,5.43c1.23,2.63,2.74,6.19,3.27,7.18C43.82,24.11,47,16.4,50.07,9a24.26,24.26,0,0,0,1.81-5.43c0-.41-1.05-.58-2-.88l-1-.29A1,1,0,0,1,49,.76c2.16.12,4,.17,6,.17s3.79-.06,5.6-.17a1.17,1.17,0,0,1,.17,1.63Z"/><path d="M77.45,31.06c0,6.19.53,6.36,3.27,6.71l1.28.18c.41.41.35,1.46-.12,1.69-2.57-.12-5.2-.17-7.76-.17s-5.31.06-7.88.17c-.47-.23-.53-1.28-.12-1.69l1.28-.18c2.74-.35,3.27-.53,3.27-6.71V9.34c0-6.19-.53-6.36-3.27-6.71l-1.28-.17C65.72,2,65.77,1,66.24.76q3.85.18,7.88.17c2.57,0,5.2-.06,7.76-.17.47.23.53,1.28.12,1.69l-1.28.17C78,3,77.45,3.15,77.45,9.34Z"/><path d="M103.9,29.83c0,2.92.12,5,1,6,.7.82,1.63,1.28,6.3,1.28,6.48,0,7.41-.29,10.1-6.31a1.56,1.56,0,0,1,1.81.35,55.18,55.18,0,0,1-2.45,8.46c-2.45-.12-7.47-.17-14-.17h-6.07c-3,0-5.9.06-8.35.17-.47-.23-.64-1.4-.12-1.69l1.75-.29c2.74-.47,3.27-.53,3.27-6.6V9.34c0-6.07-.53-6.25-3.27-6.66l-1.63-.23c-.41-.29-.41-1.46.12-1.69,2.92.12,5.55.17,8.23.17s5.2-.06,7.76-.17a1.15,1.15,0,0,1,.12,1.69l-1.28.23c-2.74.47-3.27.58-3.27,6.66Z"/><path d="M132.62,37.95c-1.05-1.23-1.81-5.25-1.75-8.87a1.3,1.3,0,0,1,1.81-.23c1.05,3,4.2,9.22,9.92,9.22,4.44,0,6.95-2.69,6.95-6.25,0-3.33-1.58-6-6-8.47L141.09,22c-4.38-2.45-8.23-6-8.23-11.27C132.86,4.9,137.18,0,145.7,0c3,0,5.25.7,8,1.23.64,1.28,1.23,5.14,1.23,7.88a1.41,1.41,0,0,1-1.87.17c-.88-3-2.92-6.95-7.88-6.95-4.67,0-6.6,3-6.6,6.13,0,2.45,1.69,5.08,5.55,7.12l3.62,1.93c3.79,2,8,5.6,8,11.5,0,6.66-5.08,11.38-13.54,11.38A17.64,17.64,0,0,1,132.62,37.95Z"/><path d="M205.13,20.32c0,11.5-8.76,20.08-20.55,20.08-13.19,0-20.78-9.28-20.78-19.67C163.8,8.82,172.44,0,184.7,0,198.18,0,205.13,9.69,205.13,20.32ZM171.74,19c0,8.06,3.44,19,13.43,19,6.66,0,12-5,12-16.7,0-8.82-4-19-13.25-19C178.1,2.34,171.74,6.6,171.74,19Z"/><path d="M250.32,29.54c0,1.75,0,8.93.18,10.28a2.23,2.23,0,0,1-2,.82c-.93-1.23-2.63-3.21-6.83-8L228,17c-3.74-4.32-5.66-6.48-6.66-7.36-.17,0-.17.64-.17,3.74V24.81c0,4.38.06,9.75,1.05,11.5.53.88,1.52,1.28,3,1.46l1.28.18c.53.41.47,1.52-.12,1.69-2.16-.12-4.44-.17-6.66-.17-2.45,0-4,.06-6.07.17a1.2,1.2,0,0,1-.12-1.69l1.28-.29c1.11-.23,2.16-.41,2.57-1.34.76-1.81.76-6.89.76-11.5V11c0-4.55.06-5.49-1.93-7.18a9.42,9.42,0,0,0-3.09-1.17l-.88-.17c-.41-.35-.35-1.52.23-1.69,2.22.23,5.43.17,6.89.17,1.23,0,2.63-.06,4-.17,1,2.51,7.36,9.87,9.4,12.09l5.84,6.3c2.45,2.69,7.88,8.87,8.46,9.22.18-.18.18-.47.18-1.4V15.59c0-4.38-.06-9.75-1.11-11.5-.53-.88-1.46-1.29-2.92-1.46l-1.34-.17c-.53-.41-.47-1.52.12-1.69,2.28.12,4.44.17,6.71.17,2.51,0,4-.06,6.13-.17A1.2,1.2,0,0,1,255,2.45l-1.34.29c-1.11.23-2.1.41-2.51,1.34-.82,1.81-.82,6.89-.82,11.5Z"/><path d="M308.12,25C305.72,30.3,303,37.13,302,40.11a1.44,1.44,0,0,1-1,.29,2.24,2.24,0,0,1-1.11-.29,75.08,75.08,0,0,0-2.69-7.65L287,7.88c-1.63-3.91-2.16-4.73-4.5-5.2l-1.4-.29c-.41-.41-.41-1.46.17-1.63,2.28.12,4.79.17,7.06.17,2.63,0,4.61-.06,7.71-.17a1.11,1.11,0,0,1,.06,1.69l-1.46.35c-1.28.29-1.75.58-1.75,1.05s.47,1.81,2.86,7.77L300,22c1.05,2.63,2.63,6.07,3.21,7.42C306.37,22.07,309.87,14,313,6.07c.93-2.34.76-2.8-1-3.21l-1.69-.41a1.25,1.25,0,0,1,.12-1.69c2.39.12,4.38.17,6.25.17,2.1,0,4-.06,5.66-.17.47.29.41,1.23.12,1.69L321,2.74a4.84,4.84,0,0,0-3.62,2.39c-1.63,2.8-3.27,6.71-6,12.61Z"/><path d="M339.35,31.06c0,6.19.53,6.36,3.27,6.71l1.28.18c.41.41.35,1.46-.12,1.69-2.57-.12-5.2-.17-7.76-.17s-5.31.06-7.88.17c-.47-.23-.53-1.28-.12-1.69l1.28-.18c2.74-.35,3.27-.53,3.27-6.71V9.34c0-6.19-.53-6.36-3.27-6.71L328,2.45c-.41-.41-.35-1.46.12-1.69Q332,.93,336,.93c2.57,0,5.2-.06,7.76-.17.47.23.53,1.28.12,1.69l-1.28.17c-2.74.35-3.27.53-3.27,6.71Z"/><path d="M391.2,29.54c0,1.75,0,8.93.17,10.28a2.23,2.23,0,0,1-2,.82c-.93-1.23-2.63-3.21-6.83-8L368.9,17c-3.74-4.32-5.66-6.48-6.66-7.36-.17,0-.17.64-.17,3.74V24.81c0,4.38.06,9.75,1.05,11.5.53.88,1.52,1.28,3,1.46l1.28.18c.53.41.47,1.52-.12,1.69-2.16-.12-4.44-.17-6.66-.17-2.45,0-4,.06-6.07.17a1.2,1.2,0,0,1-.12-1.69l1.29-.29c1.11-.23,2.16-.41,2.57-1.34.76-1.81.76-6.89.76-11.5V11c0-4.55.06-5.49-1.93-7.18A9.42,9.42,0,0,0,354,2.63l-.88-.17c-.41-.35-.35-1.52.23-1.69,2.22.23,5.43.17,6.89.17,1.23,0,2.63-.06,4-.17,1,2.51,7.36,9.87,9.4,12.09l5.84,6.3C382,21.83,387.4,28,388,28.37c.17-.18.17-.47.17-1.4V15.59c0-4.38-.06-9.75-1.11-11.5-.53-.88-1.46-1.29-2.92-1.46l-1.34-.17c-.53-.41-.47-1.52.12-1.69,2.28.12,4.44.17,6.71.17,2.51,0,4-.06,6.13-.17a1.2,1.2,0,0,1,.12,1.69l-1.34.29c-1.11.23-2.1.41-2.51,1.34-.82,1.81-.82,6.89-.82,11.5Z"/><path d="M410.47,9.34c0-6.19-.53-6.42-3.27-6.77l-.93-.12c-.41-.41-.35-1.46.12-1.69,2.22.12,5,.17,7.53.17h11.15c3.74,0,7.12-.06,7.88-.17.23,1,.58,5.61.93,8.12-.23.47-1.4.58-1.87.23-.93-3.39-1.81-4.79-3.68-5.31a19.71,19.71,0,0,0-4.67-.53h-3.91c-2.51,0-2.51.12-2.51,3.44v9.87c0,1.52.06,1.58,1.4,1.58h2.8c5.08,0,6-.06,6.48-2.57l.41-2c.47-.41,1.58-.41,1.87.06-.06,1.58-.17,3.68-.17,5.84s.12,4.26.17,6.13a1.66,1.66,0,0,1-1.87.06l-.41-2.34c-.41-2.45-1.4-2.57-6.48-2.57h-2.8c-1.34,0-1.4.12-1.4,1.58v7.41c0,3,.12,5.08,1,6.07.7.82,1.69,1.23,6.6,1.28,7.41.06,8.7-1.58,10.74-6.31a1.38,1.38,0,0,1,1.87.35A37.4,37.4,0,0,1,435,39.64c-2.57-.12-7.59-.17-14.42-.17h-6.66c-2.57,0-6.13.06-8.76.17-.47-.23-.53-1.28-.12-1.69l2.16-.23c2.74-.29,3.27-.47,3.27-6.66Z"/><path d="M456.53,27.61c0-3.27-.29-4.14-1.87-7.24l-7-13.84c-1.29-2.51-1.75-3.15-4.38-3.74l-1.52-.35c-.35-.41-.23-1.52.23-1.69q3.76.18,7.36.17c2.57,0,6.13-.06,7.47-.17a1.19,1.19,0,0,1,.12,1.69l-1.75.29c-.93.17-1.23.29-1.23.76a8.42,8.42,0,0,0,1.05,3c2.28,5,4.44,9.75,6.77,14,2.39-4.44,4.55-8.52,6.83-12.9a13.09,13.09,0,0,0,1.58-3.91c0-.58-.53-.76-1.34-.88l-1.75-.41a1.15,1.15,0,0,1,.17-1.69c2.57.12,4.38.17,6.13.17s3.68-.06,5.55-.17a1.19,1.19,0,0,1,.12,1.69l-1.69.35c-2.63.53-3.33,1.58-6.36,6.71-2,3.33-3.74,6.54-5.55,9.81-1.75,3-2.16,4.26-2.16,8.23v3.5c0,6.19.53,6.36,3.39,6.66l2.22.23c.41.41.35,1.46-.12,1.69-3.62-.12-6.25-.17-8.82-.17s-5.31.06-8.46.17c-.47-.23-.53-1.28-.12-1.69l1.87-.23c2.74-.35,3.27-.47,3.27-6.66Z"/><path d="M494.89,25.16c-1.52,0-1.46,0-2,1.58l-2.39,7c-1.17,3.45-.93,3.56,1.23,3.91l1.69.29c.41.41.35,1.46-.12,1.69-1.87-.12-3.79-.12-6.19-.17-1.93,0-3.74.06-5.78.17a1.31,1.31,0,0,1-.06-1.69l1.75-.29c1.69-.29,2.33-.76,3.21-2.69.7-1.52,1.63-4,2.86-7.12l8-20.78c.7-1.87,1.28-3.27,1.11-4.26,2-.41,4-2.8,4.09-2.8a1.17,1.17,0,0,1,1,.47c.93,2.63,1.69,5.37,2.63,8l8.41,24.46c1.34,3.91,1.63,4.26,4.61,4.84l.88.18a1.26,1.26,0,0,1,.06,1.69c-2.39-.12-4.55-.17-7.59-.17-2.51,0-5.08.12-7.12.17a1.33,1.33,0,0,1-.17-1.69l1.28-.18c2.1-.29,2.39-.64,1.52-3.09L505,26.74c-.53-1.58-.76-1.58-2.39-1.58Zm7-2.63c1.63,0,1.87-.12,1.4-1.52l-2.45-7a35.88,35.88,0,0,0-1.63-4.61h-.12c-.23.41-.76,1.87-1.75,4.61l-2.45,6.83c-.58,1.69-.47,1.69.93,1.69Z"/><path d="M532.14,9.69c0-5.6-.06-6.31-2.8-6.6l-1.52-.17a1.18,1.18,0,0,1,.06-1.63c3.68-.35,8.64-.53,13.43-.53,4.55,0,8.52.58,11.09,2a9.16,9.16,0,0,1,5.14,8.52c0,5.37-4.15,8.06-7,9.22-.35.17-.23.64,0,1,4.67,7.88,7.59,12.84,10.33,15.12a7.47,7.47,0,0,0,4,1.81,1.06,1.06,0,0,1,.12,1.17,15.85,15.85,0,0,1-3.85.35c-5.6,0-8.64-2.28-12.2-7.71-1.58-2.45-3.21-5.66-4.61-7.94-1.05-1.75-1.69-2-3.62-2-1.75,0-1.81.06-1.81,1.28v7.47c0,6.19.53,6.36,3.27,6.71l1.29.18c.41.41.35,1.46-.12,1.69-2.57-.12-5.2-.17-7.76-.17s-5.2.06-7.88.17a1.14,1.14,0,0,1-.12-1.69l1.28-.18c2.74-.35,3.27-.53,3.27-6.71Zm6.77,8.41c0,1.87,0,2,2.8,2,5.72,0,8.35-2.8,8.35-8.35,0-4.61-3-8.64-8.06-8.64-3,0-3.09.18-3.09,2.86Z"/><path d="M576.05,9.69c0-5.6-.06-6.42-2.8-6.66L572,2.92a1.18,1.18,0,0,1,.06-1.63c4.2-.35,8.87-.53,14.59-.53,5.55,0,9.52.47,13.78,2a17.87,17.87,0,0,1,12,17.46A18.51,18.51,0,0,1,602,37c-4.15,2.1-9.17,2.8-14.48,2.8-3.56,0-6.3-.35-8.46-.35s-4.85.06-7.41.17c-.47-.23-.53-1.28-.12-1.69l1.28-.18c2.74-.35,3.27-.53,3.27-6.71Zm6.77,19.09c0,5.66.41,8.7,6.6,8.7,10.39,0,15.06-7.36,15.06-17.22,0-11.56-6.71-17.16-16.46-17.16a10.2,10.2,0,0,0-4.73.82c-.41.35-.47,1.58-.47,4.32Z"/><path d="M622.05,37.95c-1.05-1.23-1.81-5.25-1.75-8.87a1.3,1.3,0,0,1,1.81-.23c1.05,3,4.2,9.22,9.92,9.22,4.44,0,6.95-2.69,6.95-6.25,0-3.33-1.58-6-6-8.47L630.52,22c-4.38-2.45-8.23-6-8.23-11.27C622.29,4.9,626.61,0,635.13,0c3,0,5.25.7,8,1.23.64,1.28,1.23,5.14,1.23,7.88a1.41,1.41,0,0,1-1.87.17c-.88-3-2.92-6.95-7.88-6.95-4.67,0-6.6,3-6.6,6.13,0,2.45,1.69,5.08,5.55,7.12l3.62,1.93c3.79,2,8,5.6,8,11.5,0,6.66-5.08,11.38-13.54,11.38A17.65,17.65,0,0,1,622.05,37.95Z"/><path class="cls-1" d="M96.51,55.81h14.72V59H100v5.4h10v3.16H100v8.05H96.51Z"/><path class="cls-1" d="M121.21,55.67h3.22l8.7,19.92h-3.67l-2-4.78H118.1l-2,4.78H112.5Zm5,12.07-3.42-7.91-3.39,7.91Z"/><path class="cls-1" d="M137.94,55.81h3.7l6,9.35,6-9.35h3.7V75.59H153.9V61.4l-6.25,9.33h-.11l-6.19-9.27V75.59h-3.42Z"/><path class="cls-1" d="M164.08,55.81h3.48V75.59h-3.48Z"/><path class="cls-1" d="M174.25,55.81h3.48V72.43h10.4v3.17H174.25Z"/><path class="cls-1" d="M195.33,67.79l-7.86-12h4.1l5.54,8.76,5.6-8.76h4l-7.86,11.9v7.88h-3.5Z"/><path class="cls-1" d="M220.17,65.76V65.7a10.34,10.34,0,0,1,20.69-.06v.06a10.34,10.34,0,0,1-20.69.06Zm17,0V65.7a6.78,6.78,0,0,0-6.73-7,6.68,6.68,0,0,0-6.67,7v.06a6.78,6.78,0,0,0,6.73,7A6.68,6.68,0,0,0,237.21,65.76Z"/><path class="cls-1" d="M243.93,55.81h3.76l4.72,14.67,4.86-14.72h2.94l4.86,14.72,4.72-14.67h3.65l-6.9,19.92h-3l-4.86-14.21-4.86,14.21h-3Z"/><path class="cls-1" d="M278.41,55.81h3.22l10.6,13.68V55.81h3.42V75.59h-2.91L281.83,61.52V75.59h-3.42Z"/><path class="cls-1" d="M302.15,55.81h14.67v3.11H305.62v5.14h9.92v3.11h-9.92v5.31H317v3.11H302.15Z"/><path class="cls-1" d="M322.49,55.81h7.38c6.22,0,10.51,4.27,10.51,9.83v.06c0,5.57-4.29,9.89-10.51,9.89h-7.38Zm7.38,16.62c4.15,0,6.87-2.8,6.87-6.67V65.7A6.49,6.49,0,0,0,329.87,59H326V72.43Z"/><path class="cls-1" d="M366.94,73.3a8.7,8.7,0,0,1-6.08,2.57c-3.67,0-6.44-2.23-6.44-5.65v-.06c0-2.54,1.5-4.38,4.21-5.54A6.42,6.42,0,0,1,357,60.5v-.06c0-2.66,2.15-5,5.68-5,3.14,0,5.26,2.12,5.26,4.78v.06c0,2.6-1.72,4.15-4.35,5.14L367,68.89a28.58,28.58,0,0,0,2.12-3.82l2.63,1.38A31.2,31.2,0,0,1,369,71l3.11,3.17L369.57,76Zm-2-2-4.41-4.49c-1.84.79-2.63,2-2.63,3.28v.06A3,3,0,0,0,361.23,73,5.45,5.45,0,0,0,365,71.27Zm-.11-10.77v-.06a2.14,2.14,0,0,0-2.26-2.23,2.25,2.25,0,0,0-2.35,2.37v.06c0,1,.4,1.72,1.5,2.94C363.78,62.85,364.85,61.91,364.85,60.5Z"/><path class="cls-1" d="M386,65.76V65.7a10.34,10.34,0,0,1,20.69-.06v.06a10.34,10.34,0,0,1-20.69.06Zm17,0V65.7a6.78,6.78,0,0,0-6.73-7,6.68,6.68,0,0,0-6.67,7v.06a6.78,6.78,0,0,0,6.73,7A6.68,6.68,0,0,0,403,65.76Z"/><path class="cls-1" d="M412.27,55.81h7.8c4.61,0,7.52,2.63,7.52,6.61v.06c0,4.44-3.56,6.75-7.91,6.75h-3.93v6.36h-3.48Zm7.52,10.29c2.63,0,4.27-1.47,4.27-3.53v-.06c0-2.32-1.67-3.53-4.27-3.53h-4V66.1Z"/><path class="cls-1" d="M432.56,55.81h14.67v3.11H436v5.14H446v3.11H436v5.31h11.33v3.11H432.56Z"/><path class="cls-1" d="M452.91,55.81h8.82a8,8,0,0,1,5.71,2,6,6,0,0,1,1.64,4.27v.06a5.94,5.94,0,0,1-4.72,6l5.34,7.49h-4.1l-4.86-6.9h-4.35v6.9h-3.48Zm8.56,9.81c2.49,0,4.07-1.3,4.07-3.31v-.06c0-2.12-1.53-3.28-4.1-3.28h-5.06v6.64Z"/><path class="cls-1" d="M481.76,55.67H485l8.7,19.92H490l-2-4.78h-9.35l-2,4.78h-3.56Zm5,12.07-3.42-7.91-3.39,7.91Z"/><path class="cls-1" d="M500.8,59h-6.27V55.81h16.05V59h-6.27V75.59h-3.5Z"/><path class="cls-1" d="M515.64,55.81h14.67v3.11H519.12v5.14H529v3.11h-9.92v5.31h11.33v3.11H515.64Z"/><path class="cls-1" d="M536,55.81h7.38c6.22,0,10.51,4.27,10.51,9.83v.06c0,5.57-4.3,9.89-10.51,9.89H536Zm7.38,16.62c4.15,0,6.87-2.8,6.87-6.67V65.7A6.49,6.49,0,0,0,543.36,59h-3.9V72.43Z"/><path d="M256.76,120.49a6.85,6.85,0,0,1-.76-3.65.58.58,0,0,1,.78-.1c.45,1.22,1.81,3.79,4.29,3.79,1.92,0,3-1.1,3-2.57s-.68-2.47-2.57-3.48l-1.08-.58c-1.89-1-3.55-2.47-3.55-4.63,0-2.38,1.87-4.39,5.55-4.39a17.55,17.55,0,0,1,3.45.5,9.62,9.62,0,0,1,.53,3.24.63.63,0,0,1-.81.07,3.52,3.52,0,0,0-3.4-2.86c-2,0-2.85,1.25-2.85,2.52,0,1,.73,2.09,2.39,2.93l1.56.79c1.64.82,3.45,2.3,3.45,4.73,0,2.74-2.19,4.68-5.85,4.68A7.9,7.9,0,0,1,256.76,120.49Z"/><path d="M275,117.66c0,2.54.23,2.62,1.41,2.76l.55.07a.5.5,0,0,1-.05.7c-1.11,0-2.24-.07-3.35-.07s-2.29,0-3.4.07a.5.5,0,0,1-.05-.7l.55-.07c1.18-.14,1.41-.22,1.41-2.76v-8.93c0-2.55-.23-2.62-1.41-2.76l-.55-.07a.49.49,0,0,1,.05-.7q1.66.07,3.4.07c1.11,0,2.24,0,3.35-.07a.49.49,0,0,1,.05.7l-.55.07c-1.18.14-1.41.22-1.41,2.76Z"/><path d="M296,117c0,.72,0,3.67.08,4.22a1,1,0,0,1-.86.34c-.4-.5-1.13-1.32-2.95-3.29l-5.9-6.41c-1.61-1.78-2.44-2.66-2.87-3-.08,0-.08.26-.08,1.54v4.68c0,1.8,0,4,.45,4.73a1.61,1.61,0,0,0,1.29.6l.55.07c.23.17.2.62-.05.7-.93,0-1.92-.07-2.87-.07s-1.74,0-2.62.07a.48.48,0,0,1-.05-.7l.55-.12c.48-.1.93-.17,1.11-.55a17.91,17.91,0,0,0,.33-4.73V109.4c0-1.87,0-2.26-.83-3A4.21,4.21,0,0,0,280,106l-.38-.07c-.18-.14-.15-.62.1-.7,1,.1,2.34.07,3,.07s1.13,0,1.74-.07c.43,1,3.18,4.06,4.06,5l2.52,2.59c1.06,1.1,3.4,3.65,3.66,3.79.08-.07.08-.19.08-.58V111.3c0-1.8,0-4-.48-4.73A1.56,1.56,0,0,0,293,106l-.58-.07c-.23-.17-.2-.62.05-.7,1,0,1.92.07,2.9.07s1.74,0,2.65-.07a.48.48,0,0,1,.05.7l-.58.12c-.48.1-.91.17-1.08.55-.35.74-.35,2.83-.35,4.73Z"/><path d="M316.71,109.31a.67.67,0,0,1-.81,0c-.43-1.51-1.56-3.5-4.89-3.5s-6.43,2.16-6.43,7.08c0,5.11,3.35,7.61,6.6,7.61a5.47,5.47,0,0,0,5.27-3.58.52.52,0,0,1,.76.1,9,9,0,0,1-1.21,3.65c-.3,0-.6.14-.88.22a15.71,15.71,0,0,1-3.93.58,11.92,11.92,0,0,1-6.45-1.61,7.47,7.47,0,0,1-3.58-6.6,7.71,7.71,0,0,1,3.18-6.36,12.1,12.1,0,0,1,7-2,20.37,20.37,0,0,1,4.36.53c.3.07.48.1.71.14C316.41,106.12,316.46,107.53,316.71,109.31Z"/><path d="M321.85,108.73c0-2.55-.23-2.64-1.41-2.78l-.4,0a.49.49,0,0,1,.05-.7c1,0,2.14.07,3.25.07h4.81c1.61,0,3.07,0,3.4-.07.1.41.25,2.3.4,3.34-.1.19-.61.24-.81.1-.4-1.39-.78-2-1.59-2.18a8.9,8.9,0,0,0-2-.22h-1.69c-1.08,0-1.08,0-1.08,1.42v4.06c0,.62,0,.65.6.65h1.21c2.19,0,2.57,0,2.8-1.06l.18-.82c.2-.17.68-.17.81,0,0,.65-.08,1.51-.08,2.4s.05,1.75.08,2.52a.75.75,0,0,1-.81,0l-.18-1c-.18-1-.6-1.06-2.8-1.06h-1.21c-.58,0-.6,0-.6.65v3a4.09,4.09,0,0,0,.43,2.5c.3.34.73.5,2.85.53,3.2,0,3.76-.65,4.64-2.59a.62.62,0,0,1,.81.14,14.8,14.8,0,0,1-1.06,3.48c-1.11,0-3.28-.07-6.23-.07h-2.87c-1.11,0-2.65,0-3.78.07a.5.5,0,0,1-.05-.7l.93-.1c1.19-.12,1.41-.19,1.41-2.74Z"/><path d="M350.13,117.85c0,2.3.1,2.33,1.61,2.54l.68.1c.18.14.18.62,0,.7-1.18,0-2.37-.07-3.48-.07-1.29,0-2.45,0-3.66.07-.23-.07-.23-.55-.05-.7l.68-.1c1.51-.22,1.61-.24,1.61-2.54v-7.61c0-1.58-.08-2.16-1.21-2.28l-1.21-.12a.45.45,0,0,1,0-.58,18.18,18.18,0,0,0,4.89-1.51.3.3,0,0,1,.28.22c-.05.5-.08,1.94-.08,2.9Z"/><path d="M360.48,105.76a5.2,5.2,0,0,1,4.11,1.87,6.65,6.65,0,0,1,1.31,4.61,9.79,9.79,0,0,1-4,7.68,14.62,14.62,0,0,1-6.12,2.64.52.52,0,0,1-.18-.72,12.33,12.33,0,0,0,3.58-1.75c2-1.49,3.61-3.86,3.71-8.26.08-2.76-.73-5.11-2.6-5.11-1.11,0-2.17,1-2.24,3s1,4,2.55,4a3.23,3.23,0,0,0,.83-.1.43.43,0,0,1,.2.55,4.22,4.22,0,0,1-2.39.65,3.89,3.89,0,0,1-4-4.25A5,5,0,0,1,360.48,105.76Z"/><path d="M376.81,106.09c1.39,0,3,0,3.3-.07a.28.28,0,0,1,.18.29c-.6.91-1.41,2.18-2.47,4.15l-6.55,12.15c-.43,0-1.06-.14-1.08-.55l6.45-11.66a7.58,7.58,0,0,0,.83-2c0-.12-.15-.24-.58-.24h-5.12c-1.24,0-2.09.12-2.62,1.1-.18.12-.55.07-.63-.17.38-1.13.63-2.16.86-3.07.5,0,1.31.07,2.67.07Z"/><path d="M388.43,117.85c0,2.3.1,2.33,1.61,2.54l.68.1c.18.14.18.62-.05.7-1.18,0-2.37-.07-3.48-.07-1.29,0-2.45,0-3.66.07-.23-.07-.23-.55-.05-.7l.68-.1c1.51-.22,1.61-.24,1.61-2.54v-7.61c0-1.58-.08-2.16-1.21-2.28l-1.21-.12a.45.45,0,0,1,0-.58,18.18,18.18,0,0,0,4.89-1.51.3.3,0,0,1,.28.22c-.05.5-.08,1.94-.08,2.9Z"/><line class="cls-2" x1="280.78" y1="90.52" x2="365.37" y2="90.52"/></svg>