<svg id="Layer_1" data-name="Layer 1" xmlns="http://www.w3.org/2000/svg" viewBox="0 0 687.67 494"><defs><style>.cls-1,.cls-3,.cls-7{fill:none}.cls-2{clip-path:url(#clip-path)}.cls-3{stroke:#b0b1b4;stroke-width:29px;opacity:.2}.cls-3,.cls-7{stroke-miterlimit:10}.cls-4{clip-path:url(#clip-path-2)}.cls-5{fill:#231f20}.cls-6{fill:#377a47}.cls-7{stroke:#737474;stroke-width:1.5px}</style><clipPath id="clip-path" transform="translate(23.4 12.23)"><path class="cls-1" d="M291.07 286.07c-8.35 13.71-16.53 27-24.55 40.32-19 31.71-41.66 60.73-66.33 88.18a87 87 0 0 1-19.78 16.05c4.55-15.39 8.58-30.26 12-45.29 8.45-37.35 14.66-75 13.91-113.44-.86-44.1-6.82-87.32-23.5-128.46-10.42-25.69-24.52-49.29-44.92-68.49-17.57-16.52-38.33-25.56-62.84-24.65-15.29.56-28.06 7.17-39.94 16.29A137.41 137.41 0 0 0 9.19 92.81 38.67 38.67 0 0 1 0 101.56c8.06-22.65 21.47-40 41.53-51.83 36.07-21.29 82.26-16.84 114.84 11 26.06 22.27 43.17 50.69 55.09 82.37 10.68 28.39 16.09 57.9 17.54 88.2 1.93 39.53-1.65 78.5-11.74 116.8-4.67 17.71-10.89 34.92-17.51 52-.48 1.23-1.41 2.35-1 4.25 3.63-3.08 6.05-6.84 8.73-10.31a737.51 737.51 0 0 0 83-135c3.26-6.86 2.89-13.82 3.27-20.81 1.31-23.95 2.7-47.87 8.56-71.25 1.76-7 3.83-14 8.19-20 4.94-6.75 12.12-8 19.74-7.51 3.19.21 4.79 2.92 5.53 5.9 1.9 7.64.93 15.25-.5 22.81-4.41 23.35-12.61 45.53-21.23 67.55a32.55 32.55 0 0 0-2.11 12c-.19 27.16.44 54.3 4.24 81.22 3.39 24 8.36 47.67 19.51 69.55a80.55 80.55 0 0 0 39.59 37.8c6.54 3 13.44 3.24 20.53 2.27 19.45-2.66 34.94-13.42 50.64-24 26-17.61 45.48-41.35 63.21-66.76 5.86-8.42 11.6-16.94 17.47-25.36.6-.87.95-2.69 2.66-1.83s.32 2.26-.06 3.14c-10.63 24.87-22.6 49.09-40.71 69.45-19.53 22-42.14 40-70.88 48.62-37.82 11.38-72.67-2.13-95.13-36.63-14.74-22.65-23-47.6-26.53-74.3-1.78-13.58-3-27.21-4.18-40.86a6.35 6.35 0 0 0-1.26-3.89"/></clipPath><clipPath id="clip-path-2" transform="translate(23.4 12.23)"><path class="cls-1" d="M536.87 170.28c-5.42 2.75-7.55 7-8.69 12.14-3.22 14.4 3.77 30 16.34 36.27 7.34 3.65 14.95 2.93 22.43.83 25.2-7.09 43.55-23.09 56.59-45.24 24.6-41.77 23.82-85 5.21-128.38-7.85-18.3-21.57-31.42-42.23-34.77-16.28-2.63-31.52 1.34-45.79 9.26C523.38 30 510.1 44 497.83 59.34c-22.58 28.2-35.9 60.72-46 94.93-9.32 31.46-16.5 63.44-24.63 95.2-5.76 22.52-12.11 44.93-22.29 65.89-12 24.69-27.06 47.31-49.12 64.45a49.51 49.51 0 0 1-9.05 5.63c-1 .48-2.05 1.23-2.93 0-.74-1 .24-1.73.86-2.43 27.43-30.76 41.64-68 52.3-107 9.31-34 16.09-68.63 24.65-102.83 8.93-35.62 21.27-69.72 42.48-100.12 12.94-18.54 27.47-35.56 45.83-49a128.77 128.77 0 0 1 53.89-22.82c27.33-4.9 49.63 5 68.1 24.53 17 18 24.56 40 26.6 64.29 3 36.2-7.69 68.23-30.09 96.23-15 18.76-34.11 32.53-57.69 38.71-14 3.67-27.8 2.39-40-6.44s-20.77-35-5.33-52.24c4.94-5.51 11.29-7 18.34-5 4.53 1.31 7.5 5.79 6.78 9.56-.66 3.4-6.07 7.72-9.73 7.75a3.49 3.49 0 0 1-3.91-3.35 47.6 47.6 0 0 1 0-5"/></clipPath></defs><title>logo</title><g class="cls-2" id="part1"><path class="cls-3" d="M-11.48 116.28C.23 99.37 12.08 82.29 27.3 68.45s34.33-24.36 54.87-25.53c94.87-5.39 133.18 132.91 135 203.85 1.32 52-11.91 102.44-24.65 152.39-1.84 7.21-5.25 15.67-5.59 23 4.72-8.27 13.08-13 19.57-19.65 17-17.44 30.3-38.17 42.85-58.95 12.85-21.27 23.89-43.44 35.75-65.29 18-33.26 31.34-70.21 42.29-107.9 1.23-4.24 7.52-23.5-1.72-21.31-8.21 1.95-14.41 9.05-17.51 16.9-4 10.2-3.65 21.43-4.79 32.17-6.82 64.48-3.29 129.19 19.76 189.87 18.83 49.59 64.58 73 113.27 43.34 25.18-15.35 47.6-38.64 64.88-62.54 10.11-14 33.25-56.63 43.36-70.61" transform="translate(23.4 12.23)"/></g><g class="cls-4" id="part2"><path class="cls-3" d="M336.6 392.77c30.34-26.54 58.24-74.06 70.83-112.35 17.46-53.11 22.24-109 43.23-161 18.4-45.59 50.86-88.29 96.18-109.68 17.57-8.3 37.3-10.23 55.57-2.91 37.46 15 49.13 67.09 47.13 103.31a143.22 143.22 0 0 1-34.72 85.47c-13.2 15.15-32.79 29.28-53.6 29.88-21.8.62-39.76-15.83-40.38-37.94-.19-6.71 1.56-13.89 6.57-18.37 7.07-6.31 22.57-5.13 11.82 11.12" transform="translate(23.4 12.23)"/></g><path class="cls-5" d="M64.46 241.87c-2.69.58-3.56 1.81-5.72 6.6-4.44 9.87-8.23 17.86-11.5 26-.88 2.16-1.34 3.74-1.87 4.84a2.06 2.06 0 0 1-1 .23 1.87 1.87 0 0 1-1.05-.23c-1.23-3.62-4.9-11.15-7.24-16.17-2.63 5.31-5.2 10.68-7.41 16.17a2.05 2.05 0 0 1-1 .23 1.87 1.87 0 0 1-1.05-.23c-.93-2.63-2.39-5.78-4.09-9.34l-11.25-23.84C10 243.5 9.47 242.57 7.07 242l-1.63-.41a1.14 1.14 0 0 1 .18-1.63c2.1.12 4.55.17 7.06.17 2.1 0 4.32-.06 7.12-.17a1.25 1.25 0 0 1 .17 1.63l-1.46.35c-.76.17-1.34.41-1.34.93a14 14 0 0 0 1.4 3.91l6.95 15.06c2 4.44 3.5 7.47 4.09 8.41 1.23-2.33 2.51-5.08 3.91-8.11a8.9 8.9 0 0 0 .82-2.22 5.3 5.3 0 0 0-.53-1.75l-6.13-13c-1.11-2.34-1.81-2.92-3.39-3.27l-1.69-.35a1.13 1.13 0 0 1 .17-1.63c2.39.12 4.32.17 6.31.17 2.34 0 4.61-.06 6.95-.17a1.18 1.18 0 0 1 .12 1.63l-1.58.35c-.64.12-1 .41-1 .82a5.23 5.23 0 0 0 .53 1.93c1.28 2.92 2.63 5.9 4 8.52 1-2 1.93-4.14 2.86-6.3a14.57 14.57 0 0 0 1.28-4c0-.41-.35-.7-1.17-.88l-1.63-.41a1.17 1.17 0 0 1 .17-1.63c1.58.12 3.21.17 5.43.17 2 0 3.44-.06 5.31-.17a1.11 1.11 0 0 1 .12 1.69l-1.46.29c-2.16.41-2.74 1.11-4.61 4.55-1.28 2.33-2.74 5.49-4 8.11a8.1 8.1 0 0 0-.58 1.63 6 6 0 0 0 .47 1.4l2.51 5.43c1.23 2.63 2.74 6.19 3.27 7.18 3-6.95 6.13-14.65 9.22-22.07a24.26 24.26 0 0 0 1.71-5.42c0-.41-1.05-.58-2-.88l-1-.29a1 1 0 0 1 .06-1.63c2.16.12 4 .17 6 .17s3.79-.06 5.6-.17a1.17 1.17 0 0 1 .17 1.63zM82.62 270.24c0 6.19.53 6.36 3.27 6.71l1.28.18c.41.41.35 1.46-.12 1.69-2.57-.12-5.2-.17-7.76-.17s-5.31.06-7.88.17c-.47-.23-.53-1.28-.12-1.69l1.28-.18c2.74-.35 3.27-.53 3.27-6.71v-21.72c0-6.19-.53-6.36-3.27-6.71l-1.28-.17c-.41-.41-.35-1.46.12-1.69q3.85.18 7.88.17c2.57 0 5.2-.06 7.76-.17.47.23.53 1.28.12 1.69l-1.28.17c-2.74.35-3.27.53-3.27 6.71zM109.07 269c0 2.92.12 5 1 6 .7.82 1.63 1.28 6.3 1.28 6.48 0 7.41-.29 10.1-6.31a1.56 1.56 0 0 1 1.81.35 55.18 55.18 0 0 1-2.45 8.46c-2.45-.12-7.47-.17-14-.17h-6.07c-3 0-5.9.06-8.35.17-.47-.23-.64-1.4-.12-1.69l1.75-.29c2.74-.47 3.27-.53 3.27-6.6v-21.68c0-6.07-.53-6.25-3.27-6.66l-1.63-.23c-.41-.29-.41-1.46.12-1.69 2.92.12 5.55.17 8.23.17s5.2-.06 7.76-.17a1.15 1.15 0 0 1 .12 1.69l-1.28.23c-2.74.47-3.27.58-3.27 6.66zM137.79 277.13c-1.05-1.23-1.81-5.25-1.75-8.87a1.3 1.3 0 0 1 1.81-.23c1.05 3 4.2 9.22 9.92 9.22 4.44 0 6.95-2.69 6.95-6.25 0-3.33-1.58-6-6-8.47l-2.51-1.4c-4.38-2.45-8.23-6-8.23-11.27 0-5.78 4.32-10.68 12.84-10.68 3 0 5.25.7 8 1.23.64 1.28 1.23 5.14 1.23 7.88a1.41 1.41 0 0 1-1.87.17c-.88-3-2.92-6.95-7.88-6.95-4.67 0-6.6 3-6.6 6.13 0 2.45 1.69 5.08 5.55 7.12l3.62 1.93c3.79 2 8 5.6 8 11.5 0 6.66-5.08 11.38-13.54 11.38a17.64 17.64 0 0 1-9.54-2.44zM210.3 259.5c0 11.5-8.76 20.08-20.55 20.08-13.19 0-20.78-9.28-20.78-19.67 0-11.91 8.64-20.73 20.9-20.73 13.48 0 20.43 9.69 20.43 20.32zm-33.39-1.28c0 8.06 3.44 19 13.43 19 6.66 0 12-5 12-16.7 0-8.82-4-19-13.25-19-5.82 0-12.18 4.26-12.18 16.69zM255.49 268.72c0 1.75 0 8.93.18 10.28a2.23 2.23 0 0 1-2 .82c-.93-1.23-2.63-3.21-6.83-8l-13.66-15.59c-3.74-4.32-5.66-6.48-6.66-7.36-.17 0-.17.64-.17 3.74V264c0 4.38.06 9.75 1.05 11.5.53.88 1.52 1.28 3 1.46l1.28.18c.53.41.47 1.52-.12 1.69-2.16-.12-4.44-.17-6.66-.17-2.45 0-4 .06-6.07.17a1.2 1.2 0 0 1-.12-1.69l1.28-.29c1.11-.23 2.16-.41 2.57-1.34.76-1.81.76-6.89.76-11.5v-13.85c0-4.55.06-5.49-1.93-7.18a9.42 9.42 0 0 0-3.09-1.17l-.88-.17c-.41-.35-.35-1.52.23-1.69 2.22.23 5.43.17 6.89.17 1.23 0 2.63-.06 4-.17 1 2.51 7.36 9.87 9.4 12.09l5.84 6.3c2.45 2.69 7.88 8.87 8.46 9.22.18-.18.18-.47.18-1.4v-11.39c0-4.38-.06-9.75-1.11-11.5-.53-.88-1.46-1.29-2.92-1.46l-1.34-.17c-.53-.41-.47-1.52.12-1.69 2.28.12 4.44.17 6.71.17 2.51 0 4-.06 6.13-.17a1.2 1.2 0 0 1 .12 1.69l-1.34.29c-1.11.23-2.1.41-2.51 1.34-.82 1.81-.82 6.89-.82 11.5zM313.29 264.17c-2.39 5.31-5.08 12.14-6.07 15.12a1.44 1.44 0 0 1-1 .29 2.24 2.24 0 0 1-1.11-.29 75.08 75.08 0 0 0-2.69-7.65l-10.22-24.58c-1.63-3.91-2.16-4.73-4.5-5.2l-1.4-.29c-.41-.41-.41-1.46.17-1.63 2.28.12 4.79.17 7.06.17 2.63 0 4.61-.06 7.71-.17a1.11 1.11 0 0 1 .06 1.69l-1.46.35c-1.28.29-1.75.58-1.75 1.05s.47 1.81 2.86 7.77l4.2 10.39c1.05 2.63 2.63 6.07 3.21 7.42 3.15-7.36 6.66-15.41 9.75-23.35.93-2.34.76-2.8-1-3.21l-1.69-.41a1.25 1.25 0 0 1 .12-1.69c2.39.12 4.38.17 6.25.17 2.1 0 4-.06 5.66-.17.47.29.41 1.23.12 1.69l-1.46.29a4.84 4.84 0 0 0-3.62 2.39c-1.63 2.8-3.27 6.71-6 12.61zM344.52 270.24c0 6.19.53 6.36 3.27 6.71l1.28.18c.41.41.35 1.46-.12 1.69-2.57-.12-5.2-.17-7.76-.17s-5.31.06-7.88.17c-.47-.23-.53-1.28-.12-1.69l1.28-.18c2.74-.35 3.27-.53 3.27-6.71v-21.72c0-6.19-.53-6.36-3.27-6.71l-1.28-.17c-.41-.41-.35-1.46.12-1.69q3.85.18 7.88.17c2.57 0 5.2-.06 7.76-.17.47.23.53 1.28.12 1.69l-1.28.17c-2.74.35-3.27.53-3.27 6.71zM396.37 268.72c0 1.75 0 8.93.17 10.28a2.23 2.23 0 0 1-2 .82c-.93-1.23-2.63-3.21-6.83-8l-13.66-15.59c-3.74-4.32-5.66-6.48-6.66-7.36-.17 0-.17.64-.17 3.74V264c0 4.38.06 9.75 1.05 11.5.53.88 1.52 1.28 3 1.46l1.28.18c.53.41.47 1.52-.12 1.69-2.16-.12-4.44-.17-6.66-.17-2.45 0-4 .06-6.07.17a1.2 1.2 0 0 1-.12-1.69l1.29-.29c1.11-.23 2.16-.41 2.57-1.34.76-1.81.76-6.89.76-11.5v-13.85c0-4.55.06-5.49-1.93-7.18a9.42 9.42 0 0 0-3.09-1.17l-.88-.17c-.41-.35-.35-1.52.23-1.69 2.22.23 5.43.17 6.89.17 1.23 0 2.63-.06 4-.17 1 2.51 7.36 9.87 9.4 12.09l5.84 6.3c2.45 2.69 7.88 8.87 8.47 9.22.17-.18.17-.47.17-1.4v-11.39c0-4.38-.06-9.75-1.11-11.5-.53-.88-1.46-1.29-2.92-1.46l-1.34-.17c-.53-.41-.47-1.52.12-1.69 2.28.12 4.44.17 6.71.17 2.51 0 4-.06 6.13-.17a1.2 1.2 0 0 1 .12 1.69l-1.34.29c-1.11.23-2.1.41-2.51 1.34-.82 1.81-.82 6.89-.82 11.5zM415.64 248.52c0-6.19-.53-6.42-3.27-6.77l-.93-.12c-.41-.41-.35-1.46.12-1.69 2.22.12 5 .17 7.53.17h11.15c3.74 0 7.12-.06 7.88-.17.23 1 .58 5.61.93 8.12-.23.47-1.4.58-1.87.23-.93-3.39-1.81-4.79-3.68-5.31a19.71 19.71 0 0 0-4.67-.53h-3.91c-2.51 0-2.51.12-2.51 3.44v9.87c0 1.52.06 1.58 1.4 1.58h2.8c5.08 0 6-.06 6.48-2.57l.41-2c.47-.41 1.58-.41 1.87.06-.06 1.58-.17 3.68-.17 5.84s.12 4.26.17 6.13a1.66 1.66 0 0 1-1.87.06l-.41-2.34c-.41-2.45-1.4-2.57-6.48-2.57h-2.8c-1.34 0-1.4.12-1.4 1.58V269c0 3 .12 5.08 1 6.07.7.82 1.69 1.23 6.6 1.28 7.41.06 8.7-1.58 10.74-6.31a1.38 1.38 0 0 1 1.87.35 37.4 37.4 0 0 1-2.45 8.46c-2.57-.12-7.59-.17-14.42-.17h-6.66c-2.57 0-6.13.06-8.76.17-.47-.23-.53-1.28-.12-1.69l2.16-.23c2.74-.29 3.27-.47 3.27-6.66zM461.7 266.79c0-3.27-.29-4.14-1.87-7.24l-7-13.84c-1.29-2.51-1.75-3.15-4.38-3.74l-1.52-.35c-.35-.41-.23-1.52.23-1.69q3.76.18 7.36.17c2.57 0 6.13-.06 7.47-.17a1.19 1.19 0 0 1 .12 1.69l-1.75.29c-.93.17-1.23.29-1.23.76a8.42 8.42 0 0 0 1.05 3c2.28 5 4.44 9.75 6.77 14 2.39-4.44 4.55-8.52 6.83-12.9a13.09 13.09 0 0 0 1.58-3.91c0-.58-.53-.76-1.34-.88l-1.75-.41a1.15 1.15 0 0 1 .17-1.69c2.57.12 4.38.17 6.13.17s3.68-.06 5.55-.17a1.19 1.19 0 0 1 .12 1.69l-1.69.35c-2.63.53-3.33 1.58-6.36 6.71-2 3.33-3.74 6.54-5.55 9.81-1.75 3-2.16 4.26-2.16 8.23v3.5c0 6.19.53 6.36 3.39 6.66l2.22.23c.41.41.35 1.46-.12 1.69-3.62-.12-6.25-.17-8.82-.17s-5.31.06-8.46.17c-.47-.23-.53-1.28-.12-1.69l1.87-.23c2.74-.35 3.27-.47 3.27-6.66zM500.06 264.34c-1.52 0-1.46 0-2 1.58l-2.39 7c-1.17 3.45-.93 3.56 1.23 3.91l1.69.29c.41.41.35 1.46-.12 1.69-1.87-.12-3.79-.12-6.19-.17-1.93 0-3.74.06-5.78.17a1.31 1.31 0 0 1-.06-1.69l1.75-.29c1.69-.29 2.33-.76 3.21-2.69.7-1.52 1.63-4 2.86-7.12l8-20.78c.7-1.87 1.28-3.27 1.11-4.26 2-.41 4-2.8 4.09-2.8a1.17 1.17 0 0 1 1 .47c.93 2.63 1.69 5.37 2.63 8l8.41 24.46c1.34 3.91 1.63 4.26 4.61 4.84l.88.18a1.26 1.26 0 0 1 .06 1.69c-2.39-.12-4.55-.17-7.59-.17-2.51 0-5.08.12-7.12.17a1.33 1.33 0 0 1-.17-1.69l1.28-.18c2.1-.29 2.39-.64 1.52-3.09l-2.74-7.94c-.53-1.58-.76-1.58-2.39-1.58zm7-2.63c1.63 0 1.87-.12 1.4-1.52l-2.45-7a35.88 35.88 0 0 0-1.63-4.61h-.12c-.23.41-.76 1.87-1.75 4.61l-2.45 6.81c-.58 1.69-.47 1.69.93 1.69zM537.31 248.87c0-5.6-.06-6.31-2.8-6.6l-1.51-.17a1.18 1.18 0 0 1 .06-1.63c3.68-.35 8.64-.53 13.43-.53 4.55 0 8.52.58 11.09 2a9.16 9.16 0 0 1 5.14 8.52c0 5.37-4.15 8.06-7 9.22-.35.17-.23.64 0 1 4.67 7.88 7.59 12.84 10.33 15.12a7.47 7.47 0 0 0 4 1.81 1.06 1.06 0 0 1 .12 1.17 15.85 15.85 0 0 1-3.85.35c-5.6 0-8.64-2.28-12.2-7.71-1.58-2.45-3.21-5.66-4.61-7.94-1.05-1.75-1.69-2-3.62-2-1.75 0-1.81.06-1.81 1.28v7.47c0 6.19.53 6.36 3.27 6.71l1.29.18c.41.41.35 1.46-.12 1.69-2.57-.12-5.2-.17-7.76-.17s-5.2.06-7.88.17a1.14 1.14 0 0 1-.12-1.69L534 277c2.74-.35 3.27-.53 3.27-6.71zm6.77 8.41c0 1.87 0 2 2.8 2 5.72 0 8.35-2.8 8.35-8.35 0-4.61-3-8.64-8.06-8.64-3 0-3.09.18-3.09 2.86zM581.22 248.87c0-5.6-.06-6.42-2.8-6.66l-1.23-.12a1.18 1.18 0 0 1 .06-1.63c4.2-.35 8.87-.53 14.59-.53 5.55 0 9.52.47 13.78 2a17.87 17.87 0 0 1 12 17.46 18.51 18.51 0 0 1-10.45 16.81c-4.15 2.1-9.17 2.8-14.48 2.8-3.56 0-6.3-.35-8.46-.35s-4.85.06-7.41.17c-.47-.23-.53-1.28-.12-1.69l1.3-.13c2.74-.35 3.27-.53 3.27-6.71zM588 268c0 5.66.41 8.7 6.6 8.7 10.39 0 15.06-7.36 15.06-17.22 0-11.56-6.71-17.16-16.46-17.16a10.2 10.2 0 0 0-4.73.82c-.41.35-.47 1.58-.47 4.32zM627.22 277.13c-1.05-1.23-1.81-5.25-1.75-8.87a1.3 1.3 0 0 1 1.81-.23c1.05 3 4.2 9.22 9.92 9.22 4.44 0 6.95-2.69 6.95-6.25 0-3.33-1.58-6-6-8.47l-2.51-1.4c-4.38-2.45-8.23-6-8.23-11.27 0-5.78 4.32-10.68 12.84-10.68 3 0 5.25.7 8 1.23.64 1.28 1.23 5.14 1.23 7.88a1.41 1.41 0 0 1-1.87.17c-.88-3-2.92-6.95-7.88-6.95-4.67 0-6.6 3-6.6 6.13 0 2.45 1.69 5.08 5.55 7.12l3.62 1.93c3.79 2 8 5.6 8 11.5 0 6.66-5.08 11.38-13.54 11.38a17.65 17.65 0 0 1-9.54-2.44z" transform="translate(23.4 12.23)"/><path class="cls-6" d="M101.68 295h14.72v3.17h-11.25v5.4h10v3.17h-10v8.05h-3.48zM126.38 294.85h3.22l8.7 19.92h-3.67l-2-4.78h-9.35l-2 4.78h-3.56zm5 12.07l-3.45-7.92-3.39 7.91zM143.1 295h3.7l6 9.35 6-9.35h3.7v19.78h-3.48v-14.2l-6.25 9.33h-.11l-6.19-9.27v14.13h-3.37zM169.24 295h3.48v19.78h-3.48zM179.42 295h3.48v16.62h10.4v3.17h-13.88zM200.5 307l-7.86-12h4.1l5.54 8.76 5.6-8.76h4L204 306.89v7.88h-3.5zM225.34 304.94v-.06a10.34 10.34 0 0 1 20.69-.06v.06a10.34 10.34 0 0 1-20.69.06zm17 0v-.06a6.78 6.78 0 0 0-6.73-7 6.68 6.68 0 0 0-6.67 7v.06a6.78 6.78 0 0 0 6.73 7 6.68 6.68 0 0 0 6.71-7zM249.1 295h3.76l4.72 14.67 4.86-14.72h2.94l4.86 14.72L275 295h3.65l-6.9 19.92h-3l-4.86-14.21-4.89 14.2h-3zM283.58 295h3.22l10.6 13.68V295h3.42v19.78h-2.92L287 300.7v14.07h-3.42zM307.31 295H322v3.11h-11.21v5.14h9.92v3.11h-9.92v5.31h11.33v3.11h-14.81zM327.66 295H335c6.22 0 10.51 4.27 10.51 9.83v.06c0 5.57-4.29 9.89-10.51 9.89h-7.38zm7.34 16.61c4.15 0 6.87-2.8 6.87-6.67v-.06a6.49 6.49 0 0 0-6.87-6.73h-3.9v13.45zM372.11 312.48a8.7 8.7 0 0 1-6.08 2.57c-3.67 0-6.44-2.23-6.44-5.65v-.06c0-2.54 1.5-4.38 4.21-5.54a6.42 6.42 0 0 1-1.64-4.13v-.06c0-2.66 2.15-5 5.68-5 3.14 0 5.26 2.12 5.26 4.78v.06c0 2.6-1.72 4.15-4.35 5.14l3.39 3.45a28.58 28.58 0 0 0 2.12-3.82l2.63 1.38a31.2 31.2 0 0 1-2.68 4.52l3.11 3.17-2.57 1.84zm-2-2l-4.38-4.48c-1.84.79-2.63 2-2.63 3.28v.06a3 3 0 0 0 3.31 2.88 5.45 5.45 0 0 0 3.72-1.77zm-.11-10.8v-.06a2.14 2.14 0 0 0-2.26-2.23 2.25 2.25 0 0 0-2.35 2.37v.06c0 1 .4 1.72 1.5 2.94 2.06-.76 3.11-1.67 3.11-3.08zM391.13 304.94v-.06a10.34 10.34 0 0 1 20.69-.06v.06a10.34 10.34 0 0 1-20.69.06zm17 0v-.06a6.78 6.78 0 0 0-6.73-7 6.68 6.68 0 0 0-6.67 7v.06a6.78 6.78 0 0 0 6.73 7 6.68 6.68 0 0 0 6.71-7zM417.44 295h7.8c4.61 0 7.52 2.63 7.52 6.61v.06c0 4.44-3.56 6.75-7.91 6.75h-3.93v6.36h-3.48zm7.56 10.28c2.63 0 4.27-1.47 4.27-3.53v-.06c0-2.32-1.67-3.53-4.27-3.53h-4v7.12zM437.73 295h14.67v3.11h-11.2v5.14h9.92v3.11h-9.92v5.31h11.33v3.11h-14.8zM458.07 295h8.82a8 8 0 0 1 5.71 2 6 6 0 0 1 1.64 4.27v.06a5.94 5.94 0 0 1-4.72 6l5.34 7.49h-4.1l-4.86-6.9h-4.35v6.9h-3.48zm8.56 9.81c2.49 0 4.07-1.3 4.07-3.31v-.06c0-2.12-1.53-3.28-4.1-3.28h-5.06v6.64zM486.93 294.85h3.22l8.7 19.92h-3.67l-2-4.78h-9.35l-2 4.78h-3.56zm5 12.07l-3.45-7.92-3.39 7.91zM506 298.21h-6.3V295h16.05v3.22h-6.27v16.56H506zM520.81 295h14.67v3.11h-11.2v5.14h9.92v3.11h-9.92v5.31h11.33v3.11h-14.8zM541.15 295h7.38c6.22 0 10.51 4.27 10.51 9.83v.06c0 5.57-4.3 9.89-10.51 9.89h-7.38zm7.38 16.62c4.15 0 6.87-2.8 6.87-6.67v-.06a6.49 6.49 0 0 0-6.87-6.73h-3.9v13.45z" transform="translate(23.4 12.23)"/><path class="cls-5" d="M261.93 359.67a6.85 6.85 0 0 1-.76-3.65.58.58 0 0 1 .78-.1c.45 1.22 1.81 3.79 4.29 3.79 1.92 0 3-1.1 3-2.57s-.68-2.47-2.57-3.48l-1.08-.58c-1.89-1-3.55-2.47-3.55-4.63 0-2.38 1.87-4.39 5.55-4.39a17.55 17.55 0 0 1 3.45.5 9.62 9.62 0 0 1 .53 3.24.63.63 0 0 1-.81.07 3.52 3.52 0 0 0-3.4-2.86c-2 0-2.85 1.25-2.85 2.52 0 1 .73 2.09 2.39 2.93l1.56.79c1.64.82 3.45 2.3 3.45 4.73 0 2.74-2.19 4.68-5.85 4.68a7.9 7.9 0 0 1-4.13-.99zM280.12 356.84c0 2.54.23 2.62 1.41 2.76l.55.07a.5.5 0 0 1-.05.7c-1.11 0-2.24-.07-3.35-.07s-2.29 0-3.4.07a.5.5 0 0 1-.05-.7l.55-.07c1.18-.14 1.41-.22 1.41-2.76v-8.93c0-2.55-.23-2.62-1.41-2.76l-.55-.07a.49.49 0 0 1 .05-.7q1.66.07 3.4.07c1.11 0 2.24 0 3.35-.07a.49.49 0 0 1 .05.7l-.55.07c-1.18.14-1.41.22-1.41 2.76zM301.22 356.22c0 .72 0 3.67.08 4.22a1 1 0 0 1-.86.34c-.4-.5-1.13-1.32-2.95-3.29l-5.9-6.41c-1.61-1.78-2.44-2.66-2.87-3-.08 0-.08.26-.08 1.54v4.68c0 1.8 0 4 .45 4.73a1.61 1.61 0 0 0 1.29.6l.55.07c.23.17.2.62-.05.7-.93 0-1.92-.07-2.87-.07s-1.74 0-2.62.07a.48.48 0 0 1-.05-.7l.55-.12c.48-.1.93-.17 1.11-.55a17.91 17.91 0 0 0 .33-4.73v-5.69c0-1.87 0-2.26-.83-3a4.21 4.21 0 0 0-1.34-.48l-.38-.07c-.18-.14-.15-.62.1-.7 1 .1 2.34.07 3 .07s1.13 0 1.74-.07c.43 1 3.18 4.06 4.06 5l2.52 2.59c1.06 1.1 3.4 3.65 3.66 3.79.08-.07.08-.19.08-.58v-4.68c0-1.8 0-4-.48-4.73a1.56 1.56 0 0 0-1.26-.6l-.58-.07c-.23-.17-.2-.62.05-.7 1 0 1.92.07 2.9.07s1.74 0 2.65-.07a.48.48 0 0 1 .05.7l-.58.12c-.48.1-.91.17-1.08.55-.35.74-.35 2.83-.35 4.73zM321.88 348.49a.67.67 0 0 1-.81 0c-.43-1.51-1.56-3.5-4.89-3.5s-6.43 2.16-6.43 7.08c0 5.11 3.35 7.61 6.6 7.61a5.47 5.47 0 0 0 5.27-3.58.52.52 0 0 1 .76.1 9 9 0 0 1-1.21 3.65c-.3 0-.6.14-.88.22a15.71 15.71 0 0 1-3.93.58 11.92 11.92 0 0 1-6.45-1.61 7.47 7.47 0 0 1-3.58-6.6 7.71 7.71 0 0 1 3.18-6.36 12.1 12.1 0 0 1 7-2 20.37 20.37 0 0 1 4.36.53c.3.07.48.1.71.14 0 .55.05 1.96.3 3.74zM327 347.91c0-2.55-.23-2.64-1.41-2.78h-.4a.49.49 0 0 1 .05-.7c1 0 2.14.07 3.25.07h4.81c1.61 0 3.07 0 3.4-.07.1.41.25 2.3.4 3.34-.1.19-.61.24-.81.1-.4-1.39-.78-2-1.59-2.18a8.9 8.9 0 0 0-2-.22H331c-1.08 0-1.08 0-1.08 1.42v4.06c0 .62 0 .65.61.65h1.21c2.19 0 2.57 0 2.8-1.06l.18-.82c.2-.17.68-.17.81 0 0 .65-.08 1.51-.08 2.4s.05 1.75.08 2.52a.75.75 0 0 1-.81 0l-.18-1c-.18-1-.6-1.06-2.8-1.06h-1.21c-.58 0-.61 0-.61.65v3a4.09 4.09 0 0 0 .43 2.5c.3.34.73.5 2.85.53 3.2 0 3.76-.65 4.64-2.59a.62.62 0 0 1 .81.14 14.8 14.8 0 0 1-1.06 3.48c-1.11 0-3.28-.07-6.23-.07h-2.86c-1.11 0-2.65 0-3.78.07a.5.5 0 0 1-.05-.7l.93-.1c1.19-.12 1.41-.19 1.41-2.74zM355.29 357c0 2.3.1 2.33 1.61 2.54l.68.1c.18.14.18.62 0 .7-1.18 0-2.37-.07-3.48-.07-1.29 0-2.45 0-3.66.07-.23-.07-.23-.55-.05-.7l.68-.1c1.51-.22 1.61-.24 1.61-2.54v-7.61c0-1.58-.08-2.16-1.21-2.28l-1.21-.12a.45.45 0 0 1 0-.58 18.18 18.18 0 0 0 4.89-1.51.3.3 0 0 1 .28.22c-.05.5-.08 1.94-.08 2.9zM365.65 344.94a5.2 5.2 0 0 1 4.11 1.87 6.65 6.65 0 0 1 1.31 4.61 9.79 9.79 0 0 1-4 7.68 14.62 14.62 0 0 1-6.12 2.64.52.52 0 0 1-.18-.72 12.33 12.33 0 0 0 3.58-1.75c2-1.49 3.61-3.86 3.71-8.26.08-2.76-.73-5.11-2.6-5.11-1.11 0-2.17 1-2.24 3s1 4 2.55 4a3.23 3.23 0 0 0 .83-.1.43.43 0 0 1 .2.55 4.22 4.22 0 0 1-2.39.65 3.89 3.89 0 0 1-4-4.25 5 5 0 0 1 5.24-4.81zM382 345.27c1.39 0 3 0 3.3-.07a.28.28 0 0 1 .18.29c-.6.91-1.41 2.18-2.47 4.15l-6.55 12.15c-.43 0-1.06-.14-1.08-.55l6.45-11.66a7.58 7.58 0 0 0 .83-2c0-.12-.15-.24-.58-.24h-5.12c-1.24 0-2.09.12-2.62 1.1-.18.12-.55.07-.63-.17.38-1.13.63-2.16.86-3.07.5 0 1.31.07 2.67.07zM393.6 357c0 2.3.1 2.33 1.61 2.54l.68.1c.18.14.18.62-.05.7-1.18 0-2.37-.07-3.48-.07-1.29 0-2.45 0-3.66.07-.23-.07-.23-.55-.05-.7l.68-.1c1.51-.22 1.61-.24 1.61-2.54v-7.61c0-1.58-.08-2.16-1.21-2.28l-1.21-.12a.45.45 0 0 1 0-.58 18.18 18.18 0 0 0 4.89-1.51.3.3 0 0 1 .28.22c-.05.5-.08 1.94-.08 2.9z" transform="translate(23.4 12.23)"/><path class="cls-7" d="M309.35 341.93h84.6"/></svg>